G04 DipTrace 3.3.0.0*
G04 uStreams02.GTP*
%MOIN*%
G04 #@! TF.FileFunction,Paste,Top*
G04 #@! TF.Part,Single*
%ADD63R,0.002X0.03137*%
%ADD65R,0.03137X0.002*%
%ADD71R,0.062984X0.054992*%
%ADD75R,0.086488X0.07074*%
%ADD77R,0.062866X0.03137*%
%ADD81R,0.019559X0.025465*%
%ADD87R,0.051055X0.007748*%
%ADD89R,0.078614X0.015622*%
%ADD91R,0.072X0.018*%
%ADD93R,0.019559X0.03137*%
%ADD95R,0.142X0.071*%
%ADD97R,0.051X0.071*%
%ADD99R,0.008142X0.032157*%
%ADD101R,0.03137X0.078614*%
%ADD103R,0.047118X0.047118*%
%ADD105R,0.051055X0.039244*%
%ADD107R,0.03137X0.047118*%
%ADD109R,0.047118X0.094362*%
%ADD111R,0.035307X0.03137*%
%ADD113R,0.047118X0.078614*%
%ADD115R,0.03137X0.035307*%
%FSLAX26Y26*%
G04*
G70*
G90*
G75*
G01*
G04 TopPaste*
%LPD*%
D115*
X1931751Y2744000D3*
Y2677071D3*
D113*
X1831751Y2506500D3*
Y2632484D3*
D111*
X1052117Y3413570D3*
X1119046D3*
X1335818Y3412175D3*
X1268888D3*
D115*
X710495Y3253794D3*
Y3320723D3*
D111*
X1298783Y1819056D3*
X1231854D3*
X1095350Y1820295D3*
X1162280D3*
X825184Y3035029D3*
X758255D3*
X824593Y2972718D3*
X757664D3*
X1288000Y2881500D3*
X1221071D3*
D113*
X788719Y3770152D3*
Y3644168D3*
D115*
X710004Y3180850D3*
Y3113921D3*
X1931751Y2831500D3*
Y2898429D3*
X1169003Y2594018D3*
Y2660948D3*
D111*
X1352322Y2500249D3*
X1419251D3*
D109*
X1563000Y2325249D3*
Y2486667D3*
D111*
X1415215Y2349807D3*
X1348286D3*
X431751Y2137749D3*
X498680D3*
X425500Y2600249D3*
X492429D3*
D115*
X1239146Y2105155D3*
Y2172084D3*
X1152990Y2103257D3*
Y2170186D3*
D111*
X1230681Y1976119D3*
X1297610D3*
X1161454Y1974222D3*
X1094525D3*
D113*
X1675500Y3175249D3*
Y3301234D3*
D111*
X956895Y2351079D3*
X1023824D3*
X1025500Y2205934D3*
X958571D3*
X1029929Y2456500D3*
X963000D3*
D113*
X1769251Y2219000D3*
Y2344984D3*
D111*
X1463269Y1525724D3*
X1396340D3*
X1463417Y1604563D3*
X1396488D3*
X820008Y1639932D3*
X753079D3*
X820950Y1569283D3*
X754021D3*
X1855954Y1744573D3*
X1789025D3*
X1290680Y1696114D3*
X1223751D3*
X1485638Y447888D3*
X1552567D3*
X1311566Y1040552D3*
X1244636D3*
X437140Y1240096D3*
X504070D3*
X1227979Y1528966D3*
X1294908D3*
X1077714Y700249D3*
X1010785D3*
X1365214D3*
X1298285D3*
X1554387Y929138D3*
X1487458D3*
X431228Y1166176D3*
X498157D3*
X568356Y702850D3*
X501427D3*
X1868064Y696898D3*
X1801135D3*
X699958Y441638D3*
X766887D3*
D115*
X695924Y962602D3*
Y895673D3*
D111*
X437377Y1387106D3*
X504306D3*
X666762Y1440068D3*
X599833D3*
X1407458Y1439173D3*
X1474387D3*
X1942472Y1208723D3*
X1875543D3*
X860638Y954138D3*
X793709D3*
X1010785Y619000D3*
X1077714D3*
X1800194Y614675D3*
X1867123D3*
X1944102Y1137639D3*
X1877173D3*
X1125353Y1233173D3*
X1058424D3*
X1154535Y700249D3*
X1221465D3*
D115*
X1488000Y4092178D3*
Y4025249D3*
X888000Y4092178D3*
Y4025249D3*
X1413000Y4092178D3*
Y4025249D3*
X969249Y4092178D3*
Y4025249D3*
D107*
X481751Y2875249D3*
X519152Y2788635D3*
X444349D3*
X731751Y2863371D3*
X769152Y2776757D3*
X694349D3*
D105*
X720104Y1883138D3*
X834277D3*
X1581963Y1886699D3*
X1696136D3*
D103*
X1612803Y2050446D3*
Y2200052D3*
D101*
X1538000Y3587749D3*
X1638000D3*
Y3812552D3*
X1538000D3*
D99*
X1238000Y2613176D3*
X1263591D3*
X1289181D3*
X1314772D3*
Y2802152D3*
X1289181D3*
X1263591D3*
X1238000D3*
D97*
X1500500Y2725249D3*
X1590500D3*
X1680500D3*
D95*
X1589500Y2973249D3*
D93*
X1400500Y2206500D3*
X1363098Y2293114D3*
X1437902D3*
D91*
X850500Y2212749D3*
X608500D3*
X850500Y2262749D3*
Y2312749D3*
X608500Y2262749D3*
Y2312749D3*
X850500Y2362749D3*
X608500D3*
X850500Y2412749D3*
Y2462749D3*
X608500Y2412749D3*
Y2462749D3*
X850500Y2512749D3*
X608500D3*
D89*
X1775972Y1578723D3*
X1571248D3*
X1775972Y1528723D3*
Y1628723D3*
Y1678723D3*
X1571248Y1528723D3*
Y1628723D3*
Y1678723D3*
X1133514Y1580312D3*
X928790D3*
X1133514Y1530312D3*
Y1630312D3*
Y1680312D3*
X928790Y1530312D3*
Y1630312D3*
Y1680312D3*
X1688000Y594000D3*
X1483276D3*
X1688000Y544000D3*
Y644000D3*
Y694000D3*
X1483276Y544000D3*
Y644000D3*
Y694000D3*
X1688000Y1085304D3*
X1483276Y1185304D3*
X1688000Y1035304D3*
Y1135304D3*
Y1185304D3*
X1483276Y1135304D3*
Y1235304D3*
Y1285304D3*
X1688000D3*
X1483276Y1385304D3*
X1688000Y1235304D3*
Y1335304D3*
X1483276D3*
X1688000Y1385304D3*
X1483276Y1085304D3*
Y1035304D3*
X888000Y1094000D3*
X683276Y1194000D3*
X888000Y1044000D3*
Y1144000D3*
Y1194000D3*
X683276Y1144000D3*
Y1244000D3*
Y1294000D3*
X888000D3*
X683276Y1394000D3*
X888000Y1244000D3*
Y1344000D3*
X683276D3*
X888000Y1394000D3*
X683276Y1094000D3*
Y1044000D3*
X888000Y594000D3*
X683276D3*
X888000Y544000D3*
Y644000D3*
Y694000D3*
X683276Y544000D3*
Y644000D3*
Y694000D3*
D93*
X505860Y1789218D3*
X543261Y1702604D3*
X468458D3*
X1188642Y871486D3*
X1226043Y784871D3*
X1151240D3*
D87*
X1045283Y4406500D3*
Y4380909D3*
Y4355319D3*
Y4329728D3*
Y4304138D3*
Y4278547D3*
Y4252957D3*
Y4227366D3*
Y4201776D3*
Y4176185D3*
Y4150594D3*
Y4125004D3*
Y4099413D3*
Y4073823D3*
X1330717D3*
Y4099413D3*
Y4125004D3*
Y4150594D3*
Y4176185D3*
Y4201776D3*
Y4227366D3*
Y4252957D3*
Y4278547D3*
Y4304138D3*
Y4329728D3*
Y4355319D3*
Y4380909D3*
Y4406500D3*
D81*
X1848433Y2816933D3*
Y2753941D3*
D77*
X1925500Y2244000D3*
Y2354236D3*
D75*
X828526Y3142476D3*
Y3302752D3*
D115*
X1555625Y3256999D3*
Y3190070D3*
D111*
X1226684Y1891206D3*
X1293613D3*
X1163249Y1891369D3*
X1096320D3*
X516657Y2697455D3*
X449728D3*
D115*
X860786Y2840587D3*
Y2773657D3*
D111*
X1348286Y2412307D3*
X1415215D3*
X498680Y2300249D3*
X431751D3*
X494251Y2381500D3*
X427322D3*
D71*
X1869251Y3175249D3*
Y3287218D3*
D111*
X498680Y2212749D3*
X431751D3*
X494251Y2456500D3*
X427322D3*
D115*
X1301646Y2172084D3*
Y2105155D3*
X1090490Y2170186D3*
Y2103257D3*
D111*
X431751Y2062749D3*
X498680D3*
X425500Y2525249D3*
X492429D3*
X1297610Y2038619D3*
X1230681D3*
X1094525Y2036722D3*
X1161454D3*
X1025500Y2280934D3*
X958571D3*
X1029929Y2531500D3*
X963000D3*
X971071Y2700249D3*
X1038000D3*
X756751Y2019000D3*
X823680D3*
X763000Y2106500D3*
X829929D3*
X975500Y2619000D3*
X1042429D3*
X957035Y1975562D3*
X890106D3*
X1395201Y1682064D3*
X1462130D3*
X1857518Y1883520D3*
X1790589D3*
X1800803Y544967D3*
X1867732D3*
X572819Y550879D3*
X505890D3*
X1245194Y1338917D3*
X1312123D3*
X1230938Y1413538D3*
X1297867D3*
X504381Y1463850D3*
X437451D3*
X438841Y1314016D3*
X505770D3*
X1247885Y1116980D3*
X1314814D3*
X1248591Y1184319D3*
X1315520D3*
X434308Y1084323D3*
X501238D3*
X434219Y1003657D3*
X501148D3*
X923142Y1882374D3*
X990071D3*
X544766Y1607289D3*
X477837D3*
X1942354Y1289587D3*
X1875425D3*
X791888Y866638D3*
X858818D3*
X1882159Y985121D3*
X1949088D3*
X1945365Y1061154D3*
X1878436D3*
X1941873Y1365702D3*
X1874944D3*
X1875672Y1437928D3*
X1942601D3*
X1052173Y1045673D3*
X1119102D3*
Y1143852D3*
X1052173D3*
X1137853Y1312602D3*
X1070924D3*
X1045924Y1395673D3*
X1112853D3*
X1221465Y619000D3*
X1154535D3*
X1065349Y956844D3*
X1132278D3*
X1308591Y956786D3*
X1241661D3*
X1648138Y929138D3*
X1715067D3*
X1298285Y619000D3*
X1365214D3*
X498858Y625571D3*
X565787D3*
X791829Y788756D3*
X858759D3*
X754198Y1708395D3*
X821127D3*
X1244801Y1263115D3*
X1311730D3*
X1629535Y4644000D3*
X1696465D3*
X1479535D3*
X1546465D3*
X1629535Y4562749D3*
X1696465D3*
X1479535D3*
X1546465D3*
X1623285Y4394000D3*
X1690214D3*
X1479535D3*
X1546465D3*
X1623285Y4312749D3*
X1690214D3*
X1479535D3*
X1546465D3*
X902714D3*
X835785D3*
X752714D3*
X685785D3*
X902714Y4394000D3*
X835785D3*
X752714D3*
X685785D3*
X902714Y4569000D3*
X835785D3*
X746465D3*
X679535D3*
X902714Y4650249D3*
X835785D3*
X746465D3*
X679535D3*
D115*
X1413000Y3894000D3*
Y3960929D3*
D65*
X1006438Y3224399D3*
Y3204714D3*
Y3185029D3*
Y3165344D3*
Y3145659D3*
Y3125974D3*
Y3106289D3*
Y3086604D3*
Y3066919D3*
Y3047234D3*
Y3027549D3*
Y3007864D3*
D63*
X1065493Y2948808D3*
X1085178D3*
X1104864D3*
X1124549D3*
X1144234D3*
X1163919D3*
X1183604D3*
X1203289D3*
X1222974D3*
X1242659D3*
X1262344D3*
X1282029D3*
D65*
X1341084Y3007864D3*
Y3027549D3*
Y3047234D3*
Y3066919D3*
Y3086604D3*
Y3106289D3*
Y3125974D3*
Y3145659D3*
Y3165344D3*
Y3185029D3*
Y3204714D3*
Y3224399D3*
D63*
X1282029Y3283454D3*
X1262344D3*
X1242659D3*
X1222974D3*
X1203289D3*
X1183604D3*
X1163919D3*
X1144234D3*
X1124549D3*
X1104864D3*
X1085178D3*
X1065493D3*
M02*
