M48
INCH
T01C0.0118
T02C0.024
T03C0.0276
T04C0.0394
T05C0.04
T06C0.052
T07C0.084
%
T01
X+014067Y+042315
X+014842Y+042701
X+014505Y+043690
X+014945Y+044557
X+015880Y+045065
X+015976Y+045713
X+015977Y+046516
X+014452Y+046293
X+014505Y+045815
X+013280Y+046327
X+012828Y+045967
X+012579Y+045524
X+012294Y+045065
X+011685Y+044565
X+012025Y+044315
X+012565Y+043429
X+012559Y+043097
X+012587Y+042543
X+012406Y+041748
X+011755Y+042002
X+011754Y+042441
X+011443Y+042690
X+011753Y+043309
X+011005Y+041565
X+011065Y+041250
X+011193Y+040878
X+011505Y+041377
X+012442Y+041003
X+012817Y+040252
X+013255Y+040315
X+013636Y+040106
X+013067Y+039502
X+014567Y+039690
X+014880Y+039690
X+013067Y+037815
X+012974Y+035149
X+012198Y+034297
X+011642Y+034037
X+011630Y+033315
X+012222Y+033509
X+012987Y+033345
X+013255Y+033752
X+013942Y+032815
X+013661Y+032288
X+013805Y+031504
X+013794Y+031196
X+013773Y+030719
X+013795Y+030395
X+013785Y+030079
X+012607Y+030153
X+012283Y+030076
X+012414Y+030482
X+011985Y+030834
X+011317Y+031065
X+011255Y+031470
X+012007Y+031685
X+011755Y+032315
X+012230Y+032475
X+012849Y+031963
X+011262Y+030483
X+010535Y+029782
X+009737Y+030058
X+009414Y+030989
X+008317Y+030065
X+007321Y+029946
X+007315Y+030218
X+007567Y+031877
X+008130Y+032190
X+007567Y+032565
X+009318Y+033565
X+009318Y+034502
X+009505Y+035117
X+009880Y+034877
X+010130Y+035627
X+010198Y+034002
X+010571Y+033139
X+010908Y+033307
X+010239Y+032569
X+007880Y+035147
X+007216Y+035459
X+006900Y+034810
X+006211Y+035147
X+006389Y+035422
X+005630Y+035940
X+005534Y+034484
X+006193Y+034502
X+007380Y+037502
X+007380Y+037877
X+007380Y+038252
X+006505Y+037815
X+008442Y+037877
X+008442Y+038252
X+008442Y+037502
X+010130Y+037690
X+010130Y+038065
X+010147Y+038522
X+010130Y+038877
X+010088Y+040203
X+009309Y+040230
X+009942Y+041565
X+009602Y+042431
X+009144Y+042746
X+009319Y+043674
X+008605Y+044469
X+007841Y+043928
X+007304Y+044419
X+007880Y+045127
X+007756Y+045690
X+007749Y+046491
X+009317Y+045940
X+009673Y+046205
X+010380Y+046503
X+010905Y+046216
X+011285Y+045755
X+011443Y+045305
X+007837Y+043108
X+007327Y+042424
X+006059Y+042785
X+005833Y+043159
X+006067Y+043377
X+005755Y+043627
X+005442Y+043815
X+004192Y+043377
X+004418Y+045352
X+004545Y+045913
X+004899Y+046474
X+005183Y+045669
X+005972Y+039853
X+005533Y+030287
X+005305Y+030016
X+005156Y+029239
X+004281Y+029384
X+004274Y+029061
X+004942Y+027752
X+004180Y+027407
X+004426Y+026637
X+005234Y+026668
X+005705Y+026315
X+005827Y+026841
X+006068Y+027127
X+006547Y+028237
X+007505Y+028127
X+007293Y+027480
X+008147Y+027178
X+008300Y+027870
X+009505Y+027477
X+009848Y+027937
X+010692Y+026940
X+010692Y+026190
X+010255Y+025003
X+009318Y+025127
X+009380Y+024377
X+009314Y+022811
X+009290Y+022127
X+007880Y+022627
X+007710Y+023103
X+007012Y+023660
X+006698Y+024089
X+006724Y+023090
X+007723Y+024142
X+005633Y+025151
X+005339Y+025806
X+004692Y+024259
X+005005Y+023440
X+004776Y+021931
X+005693Y+021815
X+007317Y+021065
X+006795Y+020175
X+007442Y+019752
X+008539Y+019649
X+008255Y+020627
X+011117Y+021999
X+012317Y+022252
X+012483Y+023251
X+011522Y+023235
X+014167Y+024449
X+016413Y+024540
X+017513Y+025432
X+017964Y+027280
X+016727Y+028050
X+015556Y+028690
X+015249Y+028005
X+014445Y+027610
X+014452Y+027229
X+013343Y+028022
X+012892Y+027660
X+012555Y+027637
X+012236Y+027583
X+012466Y+027089
X+012966Y+027031
X+012636Y+026477
X+011380Y+027315
X+011194Y+027837
X+011194Y+029002
X+008358Y+026478
X+005005Y+019815
X+005755Y+017815
X+006035Y+017446
X+005372Y+016552
X+005828Y+016135
X+005145Y+015663
X+004965Y+014988
X+004633Y+015023
X+004645Y+014334
X+004410Y+013638
X+004992Y+013374
X+005362Y+014141
X+006302Y+013974
X+007492Y+013480
X+007251Y+013058
X+007492Y+012440
X+007667Y+011822
X+007412Y+011440
X+008006Y+011431
X+008223Y+012444
X+008227Y+012940
X+009415Y+011899
X+009969Y+012465
X+009526Y+010740
X+008831Y+010036
X+009468Y+008476
X+009501Y+006715
X+010138Y+005766
X+010988Y+005906
X+011538Y+006576
X+012285Y+005900
X+012285Y+005315
X+014044Y+006157
X+014833Y+007395
X+015925Y+006476
X+016169Y+005963
X+015505Y+005374
X+016674Y+007850
X+016544Y+009691
X+017109Y+010024
X+016278Y+011353
X+016379Y+011862
X+015951Y+012284
X+016166Y+012621
X+015805Y+012853
X+015300Y+012220
X+015349Y+011834
X+015697Y+011376
X+015693Y+010877
X+015414Y+009772
X+013442Y+010377
X+012130Y+011190
X+011505Y+011405
X+011171Y+010100
X+011759Y+009568
X+011512Y+008091
X+012692Y+007752
X+012778Y+012151
X+012471Y+012967
X+012005Y+014215
X+011458Y+013964
X+009880Y+014379
X+008631Y+015474
X+008519Y+016416
X+008545Y+017154
X+009740Y+017354
X+010247Y+016893
X+011900Y+016906
X+011900Y+017652
X+010963Y+018543
X+011817Y+019315
X+012317Y+019002
X+013004Y+018539
X+013789Y+019357
X+014381Y+017536
X+013897Y+017072
X+014911Y+016898
X+014872Y+016287
X+015186Y+015786
X+015186Y+014626
X+014833Y+014026
X+013427Y+014097
X+013449Y+014651
X+013651Y+015682
X+013130Y+015957
X+012787Y+016327
X+012242Y+015580
X+014169Y+012565
X+016677Y+014266
X+017436Y+014259
X+017852Y+014694
X+016815Y+015249
X+016364Y+016287
X+017436Y+017197
X+019375Y+018057
X+019027Y+020979
X+019042Y+021503
X+019491Y+021960
X+019026Y+024023
X+019591Y+024414
X+018150Y+030134
X+015817Y+030627
X+015817Y+031440
X+015556Y+033389
X+016295Y+034507
X+017445Y+034915
X+017552Y+034465
X+017216Y+035534
X+018192Y+036127
X+018147Y+032872
X+017814Y+039865
X+017816Y+042636
X+017838Y+043114
X+017995Y+043395
X+017998Y+043720
X+018226Y+043922
X+019584Y+043421
X+019358Y+045487
X+019196Y+046123
X+018899Y+046407
X+018354Y+045865
X+016397Y+044383
X+015943Y+043940
X+015945Y+042944
X+016267Y+042435
X+006907Y+016399
X+007236Y+015985
X+006632Y+015899
X+006439Y+015424
X+004380Y+015792
X+005640Y+012410
X+006959Y+010036
X+004350Y+009729
X+006580Y+007343
X+007647Y+006187
X+008282Y+005951
X+006661Y+005187
X+004589Y+005527
X+019114Y+006540
X+019187Y+006085
X+019158Y+005498
X+019365Y+009419
X+018227Y+012093
X+019176Y+013946
X+019323Y+014774
T02
X+014942Y+031190
X+014443Y+031190
X+014443Y+031690
X+014942Y+031690
X+014942Y+032190
X+014443Y+032190
X+014443Y+032690
X+014942Y+032690
X+014942Y+033190
X+014443Y+033190
T03
X+018880Y+043440
X+018880Y+044227
X+018880Y+042653
X+018880Y+041727
X+018880Y+040940
X+018880Y+040153
X+018880Y+039227
X+018880Y+038440
X+018880Y+037653
X+018880Y+036727
X+018880Y+035940
X+018880Y+035153
X+004880Y+035153
X+004880Y+035940
X+004880Y+036727
X+004880Y+037653
X+004880Y+038440
X+004880Y+039227
X+004880Y+040153
X+004880Y+040940
X+004880Y+041727
X+004880Y+042653
X+004880Y+043440
X+004880Y+044227
T04
X+016860Y+041990
X+015880Y+041987
X+014900Y+041990
X+008860Y+041990
X+007880Y+041987
X+006900Y+041990
X+006900Y+033990
X+007880Y+033987
X+008860Y+033990
X+014900Y+033990
X+015880Y+033987
X+016860Y+033990
X+016860Y+025990
X+015880Y+025987
X+014900Y+025990
X+008860Y+025990
X+007880Y+025987
X+006900Y+025990
X+006920Y+017940
X+007900Y+017937
X+008880Y+017940
X+014900Y+017990
X+015880Y+017987
X+016860Y+017990
T05
X+017880Y+008940
X+013880Y+008940
X+009880Y+008940
X+005880Y+008940
X+010990Y+022660
X+012770Y+022660
X+012770Y+025220
X+010990Y+025220
X+006207Y+031035
X+004427Y+031035
X+004427Y+033595
X+006207Y+033595
X+011380Y+035502
X+012380Y+035502
X+012380Y+036502
X+012380Y+037502
X+012380Y+038502
X+011380Y+038502
X+011380Y+037502
X+011380Y+036502
X+011380Y+039502
X+012380Y+039502
X+017552Y+033595
X+019332Y+033595
X+019332Y+031035
X+017552Y+031035
T06
X+017880Y+009940
X+017880Y+007940
X+017880Y+004690
X+013880Y+004690
X+013880Y+007940
X+013880Y+009940
X+013880Y+013190
X+017880Y+013190
X+009880Y+013190
X+009880Y+009940
X+009880Y+007940
X+009880Y+004690
X+005880Y+004690
X+005880Y+007940
X+005880Y+009940
X+005880Y+013190
T07
X+014010Y+044940
X+017750Y+044940
X+009750Y+044940
X+006010Y+044940
X+006010Y+036940
X+009750Y+036940
X+014010Y+036940
X+017750Y+036940
X+017750Y+028940
X+014010Y+028940
X+009750Y+028940
X+006010Y+028940
X+006030Y+020890
X+009770Y+020890
X+014010Y+020940
X+017750Y+020940
T00
M30
