G04 DipTrace 3.3.0.0*
G04 uStreams02.GBS*
%MOIN*%
G04 #@! TF.FileFunction,Soldermask,Bot*
G04 #@! TF.Part,Single*
%AMOUTLINE1*
4,1,8,
-0.016982,0.041,
-0.041,0.016982,
-0.041,-0.016982,
-0.016982,-0.041,
0.016982,-0.041,
0.041,-0.016982,
0.041,0.016982,
0.016982,0.041,
-0.016982,0.041,
0*%
%AMOUTLINE4*
4,1,8,
-0.010355,0.025,
-0.025,0.010355,
-0.025,-0.010355,
-0.010355,-0.025,
0.010355,-0.025,
0.025,-0.010355,
0.025,0.010355,
0.010355,0.025,
-0.010355,0.025,
0*%
%ADD68C,0.082*%
%ADD72O,0.108X0.143*%
%ADD78C,0.055559*%
%ADD82C,0.073*%
%ADD84O,0.093X0.083*%
%ADD118OUTLINE1*%
%ADD121OUTLINE4*%
%FSLAX26Y26*%
G04*
G70*
G90*
G75*
G01*
G04 BotMask*
%LPD*%
D84*
X1788000Y994000D3*
Y1319000D3*
D82*
Y894000D3*
D84*
X1388000Y994000D3*
Y1319000D3*
D82*
Y894000D3*
D84*
X988000Y994000D3*
Y1319000D3*
D82*
Y894000D3*
D84*
X588000Y994000D3*
Y1319000D3*
D82*
Y894000D3*
D84*
X1788000Y794000D3*
Y469000D3*
D82*
Y894000D3*
D84*
X1388000Y794000D3*
Y469000D3*
D82*
Y894000D3*
D84*
X988000Y794000D3*
Y469000D3*
D82*
Y894000D3*
D84*
X588000Y794000D3*
Y469000D3*
D82*
Y894000D3*
D118*
X1238000Y3550249D3*
X1138000D3*
X1238000Y3650249D3*
X1138000D3*
X1238000Y3750249D3*
X1138000D3*
X1238000Y3850249D3*
X1138000D3*
X1238000Y3950249D3*
X1138000D3*
D121*
X1494249Y3119000D3*
X1444251D3*
X1494249Y3169000D3*
X1444251D3*
X1494249Y3219000D3*
X1444251D3*
X1494249Y3269000D3*
X1444251D3*
X1494249Y3319000D3*
X1444251D3*
D78*
X1888000Y4344000D3*
Y4422740D3*
Y4265260D3*
X488000Y4344000D3*
Y4265260D3*
Y4422740D3*
X1888000Y4094000D3*
Y4172740D3*
Y4015260D3*
X488000Y4094000D3*
Y4015260D3*
Y4172740D3*
X1888000Y3844000D3*
Y3922740D3*
Y3765260D3*
X488000Y3844000D3*
Y3765260D3*
Y3922740D3*
X1888000Y3594000D3*
Y3672740D3*
Y3515260D3*
X488000Y3594000D3*
Y3515260D3*
Y3672740D3*
D82*
X1686000Y4199000D3*
X1588000Y4198724D3*
X1490000Y4199000D3*
D72*
X1401000Y4494000D3*
X1775000D3*
D82*
X886000Y4199000D3*
X788000Y4198724D3*
X690000Y4199000D3*
D72*
X601000Y4494000D3*
X975000D3*
D82*
X1686000Y3399000D3*
X1588000Y3398724D3*
X1490000Y3399000D3*
D72*
X1401000Y3694000D3*
X1775000D3*
D82*
X886000Y3399000D3*
X788000Y3398724D3*
X690000Y3399000D3*
D72*
X601000Y3694000D3*
X975000D3*
D82*
X1686000Y1799000D3*
X1588000Y1798724D3*
X1490000Y1799000D3*
D72*
X1401000Y2094000D3*
X1775000D3*
D82*
X1686000Y2599000D3*
X1588000Y2598724D3*
X1490000Y2599000D3*
D72*
X1401000Y2894000D3*
X1775000D3*
D82*
X886000Y2599000D3*
X788000Y2598724D3*
X690000Y2599000D3*
D72*
X601000Y2894000D3*
X975000D3*
D82*
X888000Y1794000D3*
X790000Y1793724D3*
X692000Y1794000D3*
D72*
X603000Y2089000D3*
X977000D3*
D68*
X1933249Y3103500D3*
Y3359500D3*
X1755249Y3103500D3*
Y3359500D3*
X442749D3*
Y3103500D3*
X620749Y3359500D3*
Y3103500D3*
X1277000Y2266000D3*
Y2522000D3*
X1099000Y2266000D3*
Y2522000D3*
M02*
